<svg width="14" height="14" viewBox="0 0 14 14" fill="none" xmlns="http://www.w3.org/2000/svg">
<path d="M6.30772 1.32472C6.56436 0.709948 7.43532 0.709948 7.69195 1.32472L8.87377 4.15577C8.97633 4.40146 9.20146 4.57436 9.46529 4.61007L12.6207 5.03715C13.2709 5.12515 13.5027 5.94663 12.9943 6.36145L10.5744 8.33621C10.3529 8.51695 10.2534 8.80788 10.3179 9.08638L11.0905 12.4253C11.2456 13.0954 10.492 13.6034 9.92897 13.2083L7.4307 11.4548C7.17212 11.2733 6.82755 11.2733 6.56898 11.4548L4.07066 13.2083C3.50763 13.6035 2.75404 13.0955 2.90911 12.4253L3.68172 9.08637C3.74616 8.80787 3.64668 8.51695 3.42521 8.33622L1.00531 6.36145C0.496981 5.94663 0.728726 5.12515 1.3789 5.03715L4.53438 4.61007C4.79822 4.57436 5.02334 4.40146 5.12591 4.15577L6.30772 1.32472Z" stroke="#EC8B00" stroke-miterlimit="3.3292" stroke-linecap="round" stroke-linejoin="round"/>
</svg>
